<?xml version="1.0" encoding="UTF-8" standalone="no"?>
<svg
   xmlns:dc="http://purl.org/dc/elements/1.1/"
   xmlns:cc="http://creativecommons.org/ns#"
   xmlns:rdf="http://www.w3.org/1999/02/22-rdf-syntax-ns#"
   xmlns:svg="http://www.w3.org/2000/svg"
   xmlns="http://www.w3.org/2000/svg"
   viewBox="0 0 510 376"
   height="376"
   width="510"
   version="1.1"
   id="svg5921">
  <metadata
     id="metadata5927">
    <rdf:RDF>
      <cc:Work
         rdf:about="">
        <dc:format>image/svg+xml</dc:format>
        <dc:type
           rdf:resource="http://purl.org/dc/dcmitype/StillImage" />
        <dc:title></dc:title>
      </cc:Work>
    </rdf:RDF>
  </metadata>
  <defs
     id="defs5925" />
  <path
     id="fruitBody"
     d="m 356.14162,199.67416 c 0.71272,24.80467 -2.60054,51 -15.8582,72.45038 -13.59536,20.20987 -30.09583,39.81067 -53.27841,49.1235 -21.28549,10.76497 -44.70618,18.30312 -68.81402,17.13529 -22.80432,1.57283 -46.3704,3.86335 -68.27055,-4.47586 -23.82738,-6.38525 -44.23432,-21.35249 -60.074739,-39.96423 -18.549877,-21.4362 -31.038606,-48.04116 -37.686544,-75.48515 -4.282956,-25.86314 0.162593,-53.3029 11.814087,-76.74148 12.982122,-23.0438 32.48944,-42.202005 54.166186,-57.095773 21.43328,-14.452501 47.59277,-18.836156 72.99172,-17.84836 34.66201,2.161337 70.67791,4.998338 102.32544,20.530557 30.34858,14.883446 51.70038,44.480826 59.5306,76.943306 2.53425,11.62083 3.14424,23.56543 3.15443,35.42782 z"
     style="opacity:1;fill:#ff0000;fill-opacity:1;stroke:#ff0000;stroke-width:1;stroke-miterlimit:4;stroke-dasharray:none;stroke-opacity:1" />
  <rect
     y="66.390587"
     x="48.858799"
     height="273.37656"
     width="307.93503"
     id="whiteRect"
     style="opacity:1;fill:#ffffff;fill-opacity:1;stroke:none;stroke-width:3;stroke-miterlimit:4;stroke-dasharray:none;stroke-opacity:1" />
  <path
     id="fruitOutline"
     d="m 184.38045,67.50562 c -27.30797,-0.750651 -54.7959,7.547433 -76.04287,24.985436 -25.431535,20.618834 -48.863863,47.263614 -54.343752,80.638654 -5.630241,25.52183 -2.317934,52.46994 9.21783,75.90305 15.445969,36.51182 43.710622,69.9901 82.253282,82.72666 21.56726,8.39714 44.92948,8.24757 67.61371,6.17509 18.60392,-0.42577 37.46204,-1.5646 54.81601,-9.0348 22.54614,-8.8335 45.11302,-20.45747 59.62734,-40.56589 12.93738,-15.54988 23.05328,-33.71926 25.56333,-54.08823 3.81235,-27.01755 3.99123,-55.42976 -4.16734,-81.70938 C 337.44914,119.3723 310.64627,91.985691 277.05572,81.187204 247.30236,71.389212 215.55607,68.354589 184.38045,67.50562 Z"
     style="opacity:1;fill:none;fill-opacity:1;stroke:#ff0000;stroke-width:4;stroke-miterlimit:4;stroke-dasharray:none;stroke-opacity:1" />
  <path
     id="stem"
     d="m 187.87371,124.14453 c -13.94329,-6.08904 -27.35068,-13.59733 -42.31617,-17.00808 -12.11598,-3.73678 -24.96573,-4.2004 -37.47749,-2.65347 -17.112935,3.10735 -34.751695,7.07279 -49.455314,16.72821 1.375747,-1.0722 6.685209,-4.94915 9.574002,-7.10016 21.743309,-10.11493 45.950282,-18.278821 70.182482,-14.430613 9.97023,2.046703 20.15932,3.375433 29.71631,7.014543 -3.75576,-9.163874 -13.11114,-14.110925 -19.98194,-20.751727 -8.16048,-6.993588 -15.69619,-14.856402 -24.05756,-21.511109 -6.03836,-3.919051 -13.62126,-3.625032 -20.52268,-4.502062 -7.995314,0.466919 -4.352652,-0.0027 1.39971,-0.642134 7.75611,-0.269342 15.84058,0.253101 22.94446,3.711129 10.1176,7.555441 19.74593,16.133955 30.76613,22.565547 8.42268,5.108157 16.20023,11.512732 25.73815,14.441356 -0.43461,-5.958365 -1.53361,-11.700147 -5.10577,-16.635701 -8.11889,-14.864771 -12.68297,-31.981204 -24.26768,-44.728624 -5.41543,-3.419544 -12.23852,-7.125881 -18.45162,-3.495671 -8.303,3.367818 -12.34007,13.833732 -9.67529,22.150317 1.43249,6.734825 9.36497,-3.799679 5.30083,3.351076 -3.5848,1.335581 -9.14011,-2.231644 -7.71067,-6.737167 -1.30823,-8.823287 4.58097,-16.880814 12.17774,-20.723624 9.32596,-2.918512 19.98549,-1.541515 28.05387,4.107048 10.66961,6.904102 16.39041,18.804342 24.20579,28.487414 5.9299,8.807706 11.53902,17.841877 16.99393,26.954276 3.00343,-8.856944 6.47844,-17.603336 6.97983,-27.046834 2.1764,-5.497686 8.66799,-6.771277 13.60257,-4.21951 6.39778,0.945173 10.59864,8.219457 8.30804,14.069336 -6.0772,4.201966 -4.87461,11.213529 -5.65467,17.760729 -0.0263,3.761476 -1.94805,10.518515 -0.80517,12.432355 15.06186,-9.49293 30.58708,-18.208282 46.16272,-26.814643 17.88318,-9.542935 36.03621,-19.099917 55.45087,-25.078848 6.13619,-1.539267 13.04616,-3.274124 19.16071,-1.422438 4.99302,2.575782 9.09459,4.762575 1.36107,1.785015 -7.92667,-3.055441 -17.12938,-0.897307 -24.281,3.176483 -19.32578,12.4071 -39.65979,23.343091 -57.43706,38.014152 -6.60187,5.125139 -13.20375,10.250289 -19.80563,15.375429 9.68776,2.64139 19.66213,-1.23512 29.50335,0.49121 15.38343,1.15367 30.93159,0.90827 45.99058,4.67045 13.43363,3.20222 26.9163,6.80832 39.8791,11.51836 9.80808,4.60987 19.14321,10.27003 27.13179,17.63747 -0.44806,3.49308 -6.25148,-4.56057 -8.88007,-5.76895 -6.65773,-5.11569 -14.15607,-9.50747 -22.52078,-11.03595 -14.1982,-4.32236 -28.92483,-6.47327 -43.75539,-6.59931 -20.84148,-0.26379 -41.76223,-1.93032 -62.51548,0.80571 -7.61729,0.70685 -15.20598,1.8058 -22.86433,1.94984 3.86803,12.79386 7.33467,25.67902 9.32999,38.90689 0.0527,2.27493 3.72911,13.10141 1.08602,9.01442 -9.50386,-14.42787 -19.97153,-28.23274 -27.83059,-43.67184 -1.75809,-2.98588 -6.29221,-11.56366 -2.67903,-3.72992 2.32675,4.36962 -7.10308,1.86495 -9.86148,3.26119 -4.36239,-1.35719 -8.72479,-2.71438 -13.08718,-4.07157 z"
     style="fill:#086808;fill-opacity:1;fill-rule:evenodd;stroke:#2c582b;stroke-width:1px;stroke-linecap:butt;stroke-linejoin:miter;stroke-opacity:1" />
  <text
     id="timerText"
     y="231.29079"
     x="207.73633"
     style="font-style:normal;font-variant:normal;font-weight:normal;font-stretch:normal;font-size:50px;line-height:125%;font-family:Arial;-inkscape-font-specification:'Arial, Normal';text-align:center;letter-spacing:0px;word-spacing:0px;writing-mode:lr-tb;text-anchor:middle;fill:#000000;fill-opacity:1;stroke:none;stroke-width:1px;stroke-linecap:butt;stroke-linejoin:miter;stroke-opacity:1"
     xml:space="preserve"><tspan
       id="tspan6582"
       y="231.29079"
       x="207.73633"><tspan
         style="font-style:normal;font-variant:normal;font-weight:normal;font-stretch:normal;font-size:50px;line-height:125%;font-family:Arial;-inkscape-font-specification:'Arial, Normal';text-align:center;writing-mode:lr-tb;text-anchor:middle"
         id="tspan6584"
         y="231.29079"
         x="207.73633">25:00</tspan></tspan></text>
</svg>
