<?xml version="1.0" encoding="UTF-8" standalone="no"?>
<!-- Created with Inkscape (http://www.inkscape.org/) -->

<svg
   xmlns:dc="http://purl.org/dc/elements/1.1/"
   xmlns:cc="http://creativecommons.org/ns#"
   xmlns:rdf="http://www.w3.org/1999/02/22-rdf-syntax-ns#"
   xmlns:svg="http://www.w3.org/2000/svg"
   xmlns="http://www.w3.org/2000/svg"
   xmlns:sodipodi="http://sodipodi.sourceforge.net/DTD/sodipodi-0.dtd"
   xmlns:inkscape="http://www.inkscape.org/namespaces/inkscape"
   width="210mm"
   height="297mm"
   viewBox="0 0 744.09448819 1052.3622047"
   id="svg4258"
   version="1.1"
   inkscape:version="0.91 r13725"
   sodipodi:docname="cup.svg">
  <defs
     id="defs4260" />
  <sodipodi:namedview
     id="base"
     pagecolor="#ffffff"
     bordercolor="#666666"
     borderopacity="1.0"
     inkscape:pageopacity="0.0"
     inkscape:pageshadow="2"
     inkscape:zoom="0.5"
     inkscape:cx="288.09755"
     inkscape:cy="366.60068"
     inkscape:document-units="px"
     inkscape:current-layer="layer1"
     showgrid="false"
     showborder="false"
     inkscape:window-width="1440"
     inkscape:window-height="855"
     inkscape:window-x="0"
     inkscape:window-y="1"
     inkscape:window-maximized="1" />
  <metadata
     id="metadata4263">
    <rdf:RDF>
      <cc:Work
         rdf:about="">
        <dc:format>image/svg+xml</dc:format>
        <dc:type
           rdf:resource="http://purl.org/dc/dcmitype/StillImage" />
        <dc:title></dc:title>
      </cc:Work>
    </rdf:RDF>
  </metadata>
  <g
     inkscape:label="Layer 1"
     inkscape:groupmode="layer"
     id="layer1">
    <path
       id="path4363"
       d="m 322.41992,797.36523 c -46.53968,4e-5 -88.66122,5.50155 -119.96289,14.75977 -15.65083,4.62911 -28.6086,10.12498 -38.39258,16.9668 -9.78398,6.84182 -17.28517,15.9332 -17.28515,27.26562 7e-5,0.18501 0.005,0.36997 0.0156,0.55469 0.0321,0.57791 0.1325,1.14723 0.20508,1.7207 l 0,34.63672 c -0.0456,0.28523 -0.10886,0.5666 -0.14453,0.85352 -0.0736,0.59334 -0.0939,1.19209 -0.0606,1.78906 0.0359,0.64545 0.14225,1.28218 0.22852,1.92187 0.0379,0.86334 0.18763,1.71811 0.44531,2.54297 2.04266,10.04905 9.51718,17.67426 19.01953,23.80075 10.02356,6.4626 23.03328,11.7223 38.5586,16.1329 31.05062,8.8211 72.19058,14.0308 117.37109,14.039 l 0.006,0 c 45.16129,-0.016 86.27736,-5.228 117.30859,-14.0488 15.51562,-4.4104 28.51602,-9.6698 38.5332,-16.1309 9.06133,-5.84456 16.28939,-13.04747 18.71094,-22.4199 0.67056,-1.36598 1.02057,-2.86698 1.02337,-4.38867 l 0,-1.02539 c 0.0692,-0.66343 0.0719,-1.33213 0.008,-1.9961 -0.002,-0.0215 -0.006,-0.043 -0.008,-0.0644 l 0,-36.93945 c 0.0362,-0.32499 0.0563,-0.65155 0.0605,-0.97852 1e-5,-11.33242 -7.50118,-20.4238 -17.28516,-27.26562 -9.78398,-6.84182 -22.74174,-12.33769 -38.39258,-16.9668 -31.30166,-9.25822 -73.42321,-14.75973 -119.96289,-14.75977 z"
       style="color:#000000;font-style:normal;font-variant:normal;font-weight:normal;font-stretch:normal;font-size:medium;line-height:normal;font-family:sans-serif;text-indent:0;text-align:start;text-decoration:none;text-decoration-line:none;text-decoration-style:solid;text-decoration-color:#000000;letter-spacing:normal;word-spacing:normal;text-transform:none;direction:ltr;block-progression:tb;writing-mode:lr-tb;baseline-shift:baseline;text-anchor:start;white-space:normal;clip-rule:nonzero;display:inline;overflow:visible;visibility:visible;opacity:0.573;isolation:auto;mix-blend-mode:normal;color-interpolation:sRGB;color-interpolation-filters:linearRGB;solid-color:#000000;solid-opacity:1;fill:#e6e6e6;fill-opacity:1;fill-rule:nonzero;stroke:none;stroke-width:20;stroke-linecap:square;stroke-linejoin:round;stroke-miterlimit:4;stroke-dasharray:none;stroke-dashoffset:0;stroke-opacity:1;color-rendering:auto;image-rendering:auto;shape-rendering:auto;text-rendering:auto;enable-background:accumulate"
       inkscape:connector-curvature="0"
       sodipodi:nodetypes="cssccccccccssccsscccccccsscc" />
    <path
       style="color:#000000;font-style:normal;font-variant:normal;font-weight:normal;font-stretch:normal;font-size:medium;line-height:normal;font-family:sans-serif;text-indent:0;text-align:start;text-decoration:none;text-decoration-line:none;text-decoration-style:solid;text-decoration-color:#000000;letter-spacing:normal;word-spacing:normal;text-transform:none;direction:ltr;block-progression:tb;writing-mode:lr-tb;baseline-shift:baseline;text-anchor:start;white-space:normal;clip-rule:nonzero;display:inline;overflow:visible;visibility:visible;opacity:0.57300002;isolation:auto;mix-blend-mode:normal;color-interpolation:sRGB;color-interpolation-filters:linearRGB;solid-color:#000000;solid-opacity:1;fill:#e6e6e6;fill-opacity:1;fill-rule:nonzero;stroke:none;stroke-width:20;stroke-linecap:square;stroke-linejoin:round;stroke-miterlimit:4;stroke-dasharray:none;stroke-dashoffset:0;stroke-opacity:1;color-rendering:auto;image-rendering:auto;shape-rendering:auto;text-rendering:auto;enable-background:accumulate"
       d="M 322.41992 197.36523 C 275.88024 197.36527 233.7587 202.86678 202.45703 212.125 C 186.8062 216.75411 173.84843 222.24998 164.06445 229.0918 C 154.28047 235.93362 146.77928 245.025 146.7793 256.35742 A 10.001 10.001 0 0 0 146.79492 256.91211 C 146.82702 257.49002 146.92742 258.05934 147 258.63281 L 147 835.26953 C 146.9544 835.55476 146.89114 835.83613 146.85547 836.12305 A 10.001 10.001 0 0 0 146.79492 837.91211 C 146.83082 838.55756 146.93717 839.19429 147.02344 839.83398 A 10.001 10.001 0 0 0 147.46875 842.37695 C 149.51141 852.426 156.98593 860.05121 166.48828 866.17773 C 176.51184 872.6403 189.52156 877.89999 205.04688 882.31055 C 236.0975 891.13166 277.23746 896.34138 322.41797 896.34961 A 10.001 10.001 0 0 0 322.42383 896.34961 C 367.58512 896.33351 408.70119 891.12159 439.73242 882.30078 C 455.24804 877.89038 468.24844 872.63104 478.26562 866.16992 C 487.32695 860.32534 494.55501 853.12243 496.97656 843.75 A 10.001 10.001 0 0 0 498 839.36133 L 498 838.33594 A 10.001 10.001 0 0 0 498.00781 836.33984 C 498.00581 836.31834 498.002 836.29689 498 836.27539 L 498 257.33594 A 10.001 10.001 0 0 0 498.06055 256.35742 C 498.06056 245.025 490.55937 235.93362 480.77539 229.0918 C 470.99141 222.24998 458.03365 216.75411 442.38281 212.125 C 411.08115 202.86678 368.9596 197.36527 322.41992 197.36523 z "
       id="path4300" />
    <path
       style="opacity:0.57300002;fill:#e6e6e6;fill-opacity:1;stroke:none;stroke-width:20;stroke-linecap:square;stroke-linejoin:round;stroke-miterlimit:4;stroke-dasharray:none;stroke-opacity:1"
       d="M 488 256.7168 A 165.64104 48.992172 0 0 1 322.41992 305.34961 A 165.64104 48.992172 0 0 1 157 258.20508 L 157 836.05469 A 165.64104 48.992172 0 0 0 156.7793 837.35742 A 165.64104 48.992172 0 0 0 157 839.20508 L 157 839.36133 L 157.01953 839.36133 A 165.64104 48.992172 0 0 0 322.41992 886.34961 A 165.64104 48.992172 0 0 0 487.72266 839.36133 L 488 839.36133 L 488 837.7168 A 165.64104 48.992172 0 0 0 488.06055 837.35742 A 165.64104 48.992172 0 0 0 488 836.85156 L 488 256.7168 z "
       id="rect4268" />
    <ellipse
       style="opacity:0.57300002;fill:#727272;fill-opacity:1;stroke:none;stroke-width:20;stroke-linecap:square;stroke-linejoin:round;stroke-miterlimit:4;stroke-dasharray:none;stroke-opacity:1"
       id="path4270"
       cx="322.42007"
       cy="250.3573"
       rx="165.64104"
       ry="48.992172" />
    <ellipse
       ry="48.992172"
       rx="165.64104"
       cy="837.3573"
       cx="322.42007"
       id="ellipse4274"
       style="opacity:0.57300002;fill:#0000ff;fill-opacity:1;stroke:none;stroke-width:20;stroke-linecap:square;stroke-linejoin:round;stroke-miterlimit:4;stroke-dasharray:none;stroke-opacity:1" />
    <path
       style="opacity:1;fill:#aaccff;fill-opacity:1;stroke:none;stroke-width:20;stroke-linecap:square;stroke-linejoin:round;stroke-miterlimit:4;stroke-dasharray:none;stroke-opacity:1"
       d="M 488,476.7168 A 165.64104,48.992172 0 0 1 322.41992,525.34961 165.64104,48.992172 0 0 1 157,478.20508 l 0,357.84961 a 165.64104,48.992172 0 0 0 -0.2207,1.30273 165.64104,48.992172 0 0 0 0.2207,1.84766 l 0,0.15625 0.0195,0 a 165.64104,48.992172 0 0 0 165.40039,46.98828 165.64104,48.992172 0 0 0 165.30274,-46.98828 l 0.27734,0 0,-1.64453 a 165.64104,48.992172 0 0 0 0.0605,-0.35938 A 165.64104,48.992172 0 0 0 488,836.85156 l 0,-360.13476 z"
       id="path4321" />
    <ellipse
       ry="48.992172"
       rx="165.64104"
       cy="476.3573"
       cx="322.42007"
       id="ellipse4323"
       style="opacity:1;fill:#6aa5ff;fill-opacity:1;stroke:none;stroke-width:20;stroke-linecap:square;stroke-linejoin:round;stroke-miterlimit:4;stroke-dasharray:none;stroke-opacity:1" />
    <path
       style="opacity:1;fill:#ffffff;fill-opacity:1;stroke:none;stroke-width:20;stroke-linecap:square;stroke-linejoin:round;stroke-miterlimit:4;stroke-dasharray:none;stroke-opacity:1"
       d="M 311.64062,201.47852 A 165.64104,48.992172 0 0 0 156.7793,250.35742 165.64104,48.992172 0 0 0 322.41992,299.34961 165.64104,48.992172 0 0 0 488.06055,250.35742 165.64104,48.992172 0 0 0 337.63477,201.58984 152.39388,45.074017 0 0 1 474.81445,246.43945 152.39388,45.074017 0 0 1 322.41992,291.51367 152.39388,45.074017 0 0 1 170.02539,246.43945 152.39388,45.074017 0 0 1 311.64062,201.47852 Z"
       id="ellipse4358"
       inkscape:connector-curvature="0" />
    <path
       style="opacity:0.5;fill:#ffffff;fill-opacity:1;stroke:none;stroke-width:20;stroke-linecap:square;stroke-linejoin:round;stroke-miterlimit:4;stroke-dasharray:none;stroke-opacity:1"
       d="M 184.41406 294.0957 L 184.41406 836.05469 A 165.64104 48.992172 0 0 0 184.19336 837.35742 A 165.64104 48.992172 0 0 0 184.41406 839.20508 L 184.41406 839.36133 L 184.43359 839.36133 A 165.64104 48.992172 0 0 0 214.75586 865.58789 C 213.78326 863.51458 213.02902 861.33789 212.56055 859.0332 A 10.564678 10.564678 0 0 1 212.0918 856.34766 C 212.00066 855.67191 211.88751 854.99824 211.84961 854.31641 A 10.564678 10.564678 0 0 1 211.91406 852.42578 C 211.95174 852.12269 212.01821 851.82669 212.06641 851.52539 L 212.06641 302.91992 C 206.32861 301.41381 200.6228 299.74908 194.95703 297.90625 C 191.51984 296.72836 187.96623 295.47897 184.41406 294.0957 z "
       id="path4303" />
  </g>
</svg>
