<?xml version="1.0" encoding="UTF-8" standalone="no"?>
<svg
   xmlns:dc="http://purl.org/dc/elements/1.1/"
   xmlns:cc="http://creativecommons.org/ns#"
   xmlns:rdf="http://www.w3.org/1999/02/22-rdf-syntax-ns#"
   xmlns:svg="http://www.w3.org/2000/svg"
   xmlns="http://www.w3.org/2000/svg"
   xmlns:xlink="http://www.w3.org/1999/xlink"
   version="1.1"
   id="svg2"
   viewBox="0 0 744.09448819 1052.3622047"
   height="297mm"
   width="210mm">
  <defs
     id="defs4">
    <linearGradient
       id="linearGradient4198">
      <stop
         id="stop4200"
         offset="0"
         style="stop-color:#414343;stop-opacity:1;" />
      <stop
         id="stop4202"
         offset="1"
         style="stop-color:#414343;stop-opacity:0;" />
    </linearGradient>
    <linearGradient
       id="linearGradient4187">
      <stop
         id="stop4184"
         offset="0"
         style="stop-color:#4d4d4d;stop-opacity:0.706" />
      <stop
         style="stop-color:#ffffff;stop-opacity:0"
         offset="0.03858946"
         id="stop4186" />
      <stop
         id="stop4188"
         offset="0.70338953"
         style="stop-color:#e2e2e2;stop-opacity:0.165" />
      <stop
         id="stop4190"
         offset="1"
         style="stop-color:#999999;stop-opacity:0.663" />
    </linearGradient>
    <linearGradient
       id="linearGradient4172">
      <stop
         style="stop-color:#4d4d4d;stop-opacity:1"
         offset="0"
         id="stop4174" />
      <stop
         id="stop4176"
         offset="0.12229625"
         style="stop-color:#ffffff;stop-opacity:1" />
      <stop
         style="stop-color:#ffffff;stop-opacity:1"
         offset="0.87567246"
         id="stop4178" />
      <stop
         style="stop-color:#666666;stop-opacity:1"
         offset="1"
         id="stop4180" />
    </linearGradient>
    <linearGradient
       id="linearGradient4165">
      <stop
         id="stop4167"
         offset="0"
         style="stop-color:#2b0000;stop-opacity:1;" />
      <stop
         style="stop-color:#ffffff;stop-opacity:1"
         offset="0.12229625"
         id="stop4173" />
      <stop
         id="stop4175"
         offset="0.87567246"
         style="stop-color:#ffffff;stop-opacity:1" />
      <stop
         id="stop4169"
         offset="1"
         style="stop-color:#2b0000;stop-opacity:0;" />
    </linearGradient>
    <linearGradient
       id="linearGradient4155">
      <stop
         id="stop4157"
         offset="0"
         style="stop-color:#ffffff;stop-opacity:1" />
      <stop
         style="stop-color:#87cdde;stop-opacity:1"
         offset="0.66100478"
         id="stop4163" />
      <stop
         id="stop4159"
         offset="1"
         style="stop-color:#37abc8;stop-opacity:1" />
    </linearGradient>
    <linearGradient
       id="linearGradient4335">
      <stop
         id="stop4337"
         offset="0"
         style="stop-color:#37abc8;stop-opacity:1" />
      <stop
         style="stop-color:#ffffff;stop-opacity:1"
         offset="0.58282197"
         id="stop4343" />
      <stop
         id="stop4347"
         offset="0.773049"
         style="stop-color:#afdde9;stop-opacity:1" />
      <stop
         id="stop4345"
         offset="0.86581331"
         style="stop-color:#ffffff;stop-opacity:1" />
      <stop
         id="stop4339"
         offset="1"
         style="stop-color:#2c89a0;stop-opacity:1" />
    </linearGradient>
    <linearGradient
       id="linearGradient4275">
      <stop
         id="stop4277"
         offset="0"
         style="stop-color:#4d4d4d;stop-opacity:1" />
      <stop
         style="stop-color:#ffffff;stop-opacity:0"
         offset="0.05388125"
         id="stop4283" />
      <stop
         id="stop4285"
         offset="0.94924295"
         style="stop-color:#e2e2e2;stop-opacity:0.34901962" />
      <stop
         id="stop4279"
         offset="1"
         style="stop-color:#4d4d4d;stop-opacity:1" />
    </linearGradient>
    <linearGradient
       gradientUnits="userSpaceOnUse"
       y2="597.44629"
       x2="458.44504"
       y1="597.44629"
       x1="158.55939"
       id="linearGradient4293"
       xlink:href="#linearGradient4275" />
    <linearGradient
       gradientTransform="matrix(1,0,0,0.94066536,0,27.089532)"
       gradientUnits="userSpaceOnUse"
       y2="684.07814"
       x2="453.26506"
       y1="684.07814"
       x1="163.73685"
       id="linearGradient4341"
       xlink:href="#linearGradient4335" />
    <radialGradient
       gradientUnits="userSpaceOnUse"
       gradientTransform="matrix(-1.3173273,-0.03577664,0.01269584,-0.46747229,681.57372,685.79787)"
       r="145.71092"
       fy="468.98465"
       fx="235.98325"
       cy="468.98465"
       cx="235.98325"
       id="radialGradient4161"
       xlink:href="#linearGradient4155" />
    <linearGradient
       gradientUnits="userSpaceOnUse"
       y2="873.26102"
       x2="454.22344"
       y1="873.26102"
       x1="162.86837"
       id="linearGradient4171"
       xlink:href="#linearGradient4172" />
    <filter
       height="1.1799449"
       y="-0.089972439"
       width="1.0302381"
       x="-0.015119027"
       id="filter4376"
       style="color-interpolation-filters:sRGB">
      <feGaussianBlur
         id="feGaussianBlur4378"
         stdDeviation="1.8318587" />
    </filter>
    <clipPath
       id="clipPath4389"
       clipPathUnits="userSpaceOnUse">
      <path
         id="path4391"
         d="M 453.2793,896.375 A 147.17069,50.937223 0 0 1 308.00391,939.57031 147.17069,50.937223 0 0 1 163.8125,898.58398 c 0.31595,9.54729 0.63546,19.09484 0.98633,28.64063 a 143.68636,50.952896 0 0 0 -0.48047,3.4082 143.68636,50.952896 0 0 0 143.68555,50.95313 143.68636,50.952896 0 0 0 143.57421,-50.16797 l 0.47657,0 c 0.43492,-11.68071 0.84187,-23.36225 1.22461,-35.04297 z"
         style="opacity:0.57300002;fill:url(#linearGradient4393);fill-opacity:1;stroke:none;stroke-width:1.88930154;stroke-linecap:square;stroke-linejoin:miter;stroke-miterlimit:4;stroke-dasharray:none;stroke-opacity:1" />
    </clipPath>
    <linearGradient
       y2="873.26102"
       x2="454.22344"
       y1="873.26102"
       x1="162.86837"
       gradientTransform="translate(0,66)"
       gradientUnits="userSpaceOnUse"
       id="linearGradient4393"
       xlink:href="#linearGradient4165" />
    <linearGradient
       y2="597.44629"
       x2="458.44504"
       y1="597.44629"
       x1="158.55939"
       gradientUnits="userSpaceOnUse"
       id="linearGradient4180"
       xlink:href="#linearGradient4187" />
    <linearGradient
       gradientUnits="userSpaceOnUse"
       y2="451.34225"
       x2="358.29418"
       y1="451.34225"
       x1="257.71345"
       id="linearGradient4204"
       xlink:href="#linearGradient4198" />
    <filter
       height="1.0570514"
       y="-0.028525713"
       width="1.0289391"
       x="-0.014469566"
       id="filter4274"
       style="color-interpolation-filters:sRGB">
      <feGaussianBlur
         id="feGaussianBlur4276"
         stdDeviation="0.58831285" />
    </filter>
    <linearGradient
       y2="451.34225"
       x2="358.29418"
       y1="451.34225"
       x1="257.71345"
       gradientUnits="userSpaceOnUse"
       id="linearGradient4191"
       xlink:href="#linearGradient4198" />
    <linearGradient
       y2="451.34225"
       x2="358.29418"
       y1="451.34225"
       x1="257.71345"
       gradientUnits="userSpaceOnUse"
       id="linearGradient4197"
       xlink:href="#linearGradient4198" />
    <linearGradient
       y2="451.34225"
       x2="358.29418"
       y1="451.34225"
       x1="257.71345"
       gradientUnits="userSpaceOnUse"
       id="linearGradient4205"
       xlink:href="#linearGradient4198" />
  </defs>
  <metadata
     id="metadata7">
    <rdf:RDF>
      <cc:Work
         rdf:about="">
        <dc:format>image/svg+xml</dc:format>
        <dc:type
           rdf:resource="http://purl.org/dc/dcmitype/StillImage" />
        <dc:title></dc:title>
      </cc:Work>
    </rdf:RDF>
  </metadata>
  <g
     id="layer1">
    <path
       id="rect4136"
       d="M 451.59375 279.30664 A 143.68636 50.952896 0 0 1 308.00391 329.58594 A 143.68636 50.952896 0 0 1 164.82812 282.67578 C 157.75611 475.82789 157.72157 668.67891 164.79883 861.22461 A 143.68636 50.952896 0 0 0 164.31836 864.63281 A 143.68636 50.952896 0 0 0 308.00391 915.58594 A 143.68636 50.952896 0 0 0 451.57812 865.41797 L 452.05469 865.41797 C 459.3291 670.04775 459.30215 474.67686 452.05469 279.30664 L 451.59375 279.30664 z "
       style="opacity:0.749;fill:url(#linearGradient4293);fill-opacity:1;stroke:none;stroke-width:1.889;stroke-linecap:square;stroke-linejoin:miter;stroke-miterlimit:4;stroke-dasharray:none;stroke-opacity:1" />
    <path
       id="path4176"
       d="m 308.47266,228.42383 a 143.65157,50.952999 0 0 0 -143.65235,50.95312 143.65157,50.952999 0 0 0 2.05664,8.56641 143.68636,50.952896 0 0 1 -2.04883,-5.26758 c -7.072,193.15211 -7.10654,386.00313 -0.0293,578.54883 a 143.68636,50.952896 0 0 0 -0.48047,3.4082 143.68636,50.952896 0 0 0 143.68555,50.95313 143.68636,50.952896 0 0 0 143.57421,-50.16797 l 0.47657,0 c 7.26888,-195.22179 7.24661,-390.44423 0.0156,-585.66602 a 143.65157,50.952999 0 0 0 0.0527,-0.375 143.65157,50.952999 0 0 0 -143.65039,-50.95312 z"
       style="opacity:0.74900004;fill:url(#linearGradient4180);fill-opacity:1;stroke:none;stroke-width:1.88900006;stroke-linecap:square;stroke-linejoin:miter;stroke-miterlimit:4;stroke-dasharray:none;stroke-opacity:1" />
    <path
       style="opacity:0.57300002;fill:url(#linearGradient4171);fill-opacity:1;stroke:none;stroke-width:1.88930154;stroke-linecap:square;stroke-linejoin:miter;stroke-miterlimit:4;stroke-dasharray:none;stroke-opacity:1"
       d="M 453.2793,830.375 A 147.17069,50.937223 0 0 1 308.00391,873.57031 147.17069,50.937223 0 0 1 163.8125,832.58398 c 0.31595,9.54729 0.63546,19.09484 0.98633,28.64063 a 143.68636,50.952896 0 0 0 -0.48047,3.4082 143.68636,50.952896 0 0 0 143.68555,50.95313 143.68636,50.952896 0 0 0 143.57421,-50.16797 l 0.47657,0 c 0.43492,-11.68071 0.84187,-23.36225 1.22461,-35.04297 z"
       id="path4380" />
    <path
       id="path4255"
       d="M 452.49023 456.55469 A 146.44586 47.903233 0 0 1 451.52344 458.06445 A 144.39027 50.949715 0 0 1 308.00391 503.58203 A 144.39027 50.949715 0 0 1 164.91211 458.96094 A 146.44586 47.903233 0 0 1 164.48438 458.36914 C 162.68096 583.53591 164.13757 708.56784 168.87891 833.46289 A 139.60617 47.932838 0 0 0 168.41211 836.66797 A 139.60617 47.932838 0 0 0 308.01758 884.60156 A 139.60617 47.932838 0 0 0 447.51562 837.40625 L 447.97852 837.40625 C 452.86053 710.45572 454.35168 583.5054 452.49023 456.55469 z "
       style="opacity:0.282;fill:url(#linearGradient4341);fill-opacity:1;stroke:none;stroke-width:1.86234605;stroke-linecap:square;stroke-linejoin:miter;stroke-miterlimit:4;stroke-dasharray:none;stroke-opacity:1" />
    <ellipse
       style="opacity:0.271;fill:url(#radialGradient4161);fill-opacity:1;stroke:none;stroke-width:2.64129329;stroke-linecap:square;stroke-linejoin:miter;stroke-miterlimit:4;stroke-dasharray:none;stroke-opacity:1"
       id="ellipse4257"
       cx="308.00381"
       cy="452.63257"
       rx="144.39027"
       ry="50.949715" />
    <path
       id="path4212"
       d="M 453.2793,830.375 A 147.17069,50.937223 0 0 1 308.00391,873.57031 147.17069,50.937223 0 0 1 163.8125,832.58398 c 0.31595,9.54729 0.63546,19.09484 0.98633,28.64063 a 143.68636,50.952896 0 0 0 -0.48047,3.4082 143.68636,50.952896 0 0 0 143.68555,50.95313 143.68636,50.952896 0 0 0 143.57421,-50.16797 l 0.47657,0 c 0.43492,-11.68071 0.84187,-23.36225 1.22461,-35.04297 z"
       style="opacity:0.57300002;fill:url(#linearGradient4171);fill-opacity:1;stroke:none;stroke-width:1.88930154;stroke-linecap:square;stroke-linejoin:miter;stroke-miterlimit:4;stroke-dasharray:none;stroke-opacity:1" />
    <path
       id="path4156"
       d="M 308.00391 227.67969 A 143.68636 50.952896 0 0 0 164.31836 278.63281 A 143.68636 50.952896 0 0 0 308.00391 329.58594 A 143.68636 50.952896 0 0 0 451.68945 278.63281 A 143.68636 50.952896 0 0 0 308.00391 227.67969 z M 308.00391 232.58398 A 136.78183 46.04837 0 0 1 444.78516 278.63281 A 136.78183 46.04837 0 0 1 308.00391 324.68164 A 136.78183 46.04837 0 0 1 171.22266 278.63281 A 136.78183 46.04837 0 0 1 308.00391 232.58398 z "
       style="opacity:0.57300002;fill:#4d4d4d;fill-opacity:1;stroke:none;stroke-width:2.63492918;stroke-linecap:square;stroke-linejoin:miter;stroke-miterlimit:4;stroke-dasharray:none;stroke-opacity:1" />
    <path
       transform="translate(0,-66)"
       clip-path="url(#clipPath4389)"
       id="path4181"
       d="M 453.94141,892.70508 A 147.84339,50.594727 0 0 1 308.00195,935.61133 147.84339,50.594727 0 0 1 163.15039,894.90039 c 0.0701,2.0914 0.14809,4.18205 0.21875,6.27344 a 147.84339,50.594727 0 0 0 144.63281,40.39648 147.84339,50.594727 0 0 0 145.71485,-42.5332 c 0.0716,-2.1107 0.15466,-4.22136 0.22461,-6.33203 z m -289.9668,31.8125 a 144.34314,50.610294 0 0 0 -0.31641,2.21484 144.34314,50.610294 0 0 0 0.42578,2.97656 144.34314,50.610294 0 0 1 0.0586,-0.40039 c -0.0593,-1.59643 -0.11027,-3.19449 -0.16797,-4.79101 z m 288.97461,8.23437 A 147.1707,56.759661 0 0 1 307.67383,980.88477 147.1707,56.759661 0 0 1 163.48242,935.21289 c 0.0697,2.34623 0.14648,4.69283 0.2168,7.03906 a 147.1707,56.759661 0 0 0 143.97461,45.31836 147.1707,56.759661 0 0 0 145.05273,-47.71484 c 0.0712,-2.36788 0.15303,-4.73567 0.22266,-7.10352 z m -288.64649,35.6875 a 143.68637,56.777125 0 0 0 -0.31445,2.48633 143.68637,56.777125 0 0 0 0.42383,3.33789 143.68637,56.777125 0 0 1 0.0566,-0.45117 c -0.0592,-1.79097 -0.1086,-3.58199 -0.16602,-5.37305 z"
       style="opacity:0.44299999;fill:#4d4d4d;fill-opacity:1;stroke:none;stroke-width:1.88930154;stroke-linecap:square;stroke-linejoin:miter;stroke-miterlimit:4;stroke-dasharray:none;stroke-opacity:1;filter:url(#filter4376)" />
    <path
       style="opacity:0.57300002;fill:#4d4d4d;fill-opacity:1;stroke:none;stroke-width:2.63492918;stroke-linecap:square;stroke-linejoin:miter;stroke-miterlimit:4;stroke-dasharray:none;stroke-opacity:1"
       d="M 308.00391 227.67969 A 143.68636 50.952896 0 0 0 164.31836 278.63281 A 143.68636 50.952896 0 0 0 308.00391 329.58594 A 143.68636 50.952896 0 0 0 451.68945 278.63281 A 143.68636 50.952896 0 0 0 308.00391 227.67969 z M 308.00391 232.58398 A 136.78183 46.04837 0 0 1 444.78516 278.63281 A 136.78183 46.04837 0 0 1 308.00391 324.68164 A 136.78183 46.04837 0 0 1 171.22266 278.63281 A 136.78183 46.04837 0 0 1 308.00391 232.58398 z "
       id="path4174" />
    <ellipse
       transform="matrix(1.2002175,0,0,0.99471446,-61.667748,2.3855893)"
       ry="24.748739"
       rx="48.790367"
       cy="451.34225"
       cx="308.00381"
       id="ripple_c1"
       style="opacity:0.722;fill:none;fill-opacity:1;stroke:url(#linearGradient4204);stroke-width:3;stroke-linecap:round;stroke-linejoin:round;stroke-miterlimit:4;stroke-dasharray:none;stroke-opacity:1;filter:url(#filter4274)" />
    <ellipse
       transform="matrix(0.73230108,0,0,0.59314333,81.745182,180.09608)"
       style="opacity:0.722;fill:none;fill-opacity:1;stroke:url(#linearGradient4191);stroke-width:3;stroke-linecap:round;stroke-linejoin:round;stroke-miterlimit:4;stroke-dasharray:none;stroke-opacity:1;filter:url(#filter4274)"
       id="ripple_b1"
       cx="308.00381"
       cy="451.34225"
       rx="48.790367"
       ry="24.748739" />
    <ellipse
       transform="matrix(2.2474307,0,0,1.7995269,-384.21341,-360.86029)"
       style="opacity:0.722;fill:none;fill-opacity:1;stroke:url(#linearGradient4197);stroke-width:3;stroke-linecap:round;stroke-linejoin:round;stroke-miterlimit:4;stroke-dasharray:none;stroke-opacity:1;filter:url(#filter4274)"
       id="ripple_d1"
       cx="308.00381"
       cy="451.34225"
       rx="48.790367"
       ry="24.748739" />
    <ellipse
       ry="24.748739"
       rx="48.790367"
       cy="451.34225"
       cx="308.00381"
       id="ripple_a1"
       style="opacity:0.722;fill:none;fill-opacity:1;stroke:url(#linearGradient4205);stroke-width:3;stroke-linecap:round;stroke-linejoin:round;stroke-miterlimit:4;stroke-dasharray:none;stroke-opacity:1;filter:url(#filter4274)"
       transform="matrix(0.39585118,0,0,0.26972466,185.37304,326.06859)" />
  </g>
</svg>
