<?xml version="1.0" encoding="UTF-8" standalone="no"?>
<!-- Created with Inkscape (http://www.inkscape.org/) -->

<svg
   xmlns:dc="http://purl.org/dc/elements/1.1/"
   xmlns:cc="http://creativecommons.org/ns#"
   xmlns:rdf="http://www.w3.org/1999/02/22-rdf-syntax-ns#"
   xmlns:svg="http://www.w3.org/2000/svg"
   xmlns="http://www.w3.org/2000/svg"
   xmlns:sodipodi="http://sodipodi.sourceforge.net/DTD/sodipodi-0.dtd"
   xmlns:inkscape="http://www.inkscape.org/namespaces/inkscape"
   width="210mm"
   height="297mm"
   viewBox="0 0 744.09448819 1052.3622047"
   id="svg2"
   version="1.1"
   inkscape:version="0.91 r13725"
   sodipodi:docname="xylonphone.svg">
  <defs
     id="defs4" />
  <sodipodi:namedview
     id="base"
     pagecolor="#ffffff"
     bordercolor="#666666"
     borderopacity="1.0"
     inkscape:pageopacity="0.0"
     inkscape:pageshadow="2"
     inkscape:zoom="1"
     inkscape:cx="389.5"
     inkscape:cy="731.68095"
     inkscape:document-units="px"
     inkscape:current-layer="layer1"
     showgrid="false"
     inkscape:window-width="1440"
     inkscape:window-height="855"
     inkscape:window-x="0"
     inkscape:window-y="1"
     inkscape:window-maximized="1" />
  <metadata
     id="metadata7">
    <rdf:RDF>
      <cc:Work
         rdf:about="">
        <dc:format>image/svg+xml</dc:format>
        <dc:type
           rdf:resource="http://purl.org/dc/dcmitype/StillImage" />
        <dc:title></dc:title>
      </cc:Work>
    </rdf:RDF>
  </metadata>
  <g
     inkscape:label="Layer 1"
     inkscape:groupmode="layer"
     id="layer1">
    <path
       style="opacity:1;fill:#00aa00;fill-opacity:1;stroke:none;stroke-width:4.32511568;stroke-linecap:square;stroke-linejoin:round;stroke-miterlimit:4;stroke-dasharray:none;stroke-opacity:1"
       d="m 458,143.02539 a 220.33745,198.33745 0 0 0 -60.96289,7.9043 l 2.64453,57.84179 A 165.69337,165.69337 0 0 1 403,208.66797 a 165.69337,165.69337 0 0 1 43.82227,6.08789 l 21.58984,-71.39844 A 220.33745,198.33745 0 0 0 458,143.02539 Z"
       id="path4185" />
    <path
       style="opacity:1;fill:#005500;fill-opacity:1;stroke:none;stroke-width:4.32511568;stroke-linecap:square;stroke-linejoin:round;stroke-miterlimit:4;stroke-dasharray:none;stroke-opacity:1"
       d="m 477.12695,143.9082 -22.15234,73.25977 a 165.69337,165.69337 0 0 1 38.54101,18.57617 l 52.43946,-75.9707 A 220.33745,198.33745 0 0 0 477.12695,143.9082 Z"
       id="path4183" />
    <path
       style="opacity:1;fill:#ffcc00;fill-opacity:1;stroke:none;stroke-width:4.32511568;stroke-linecap:square;stroke-linejoin:round;stroke-miterlimit:4;stroke-dasharray:none;stroke-opacity:1"
       d="m 388.63672,153.2793 a 220.33745,198.33745 0 0 0 -68.27734,33.4414 l 16.70117,35.88672 a 165.69337,165.69337 0 0 1 54.13086,-13.4414 l -2.55469,-55.88672 z"
       id="path4181" />
    <path
       style="opacity:1;fill:#0088aa;fill-opacity:1;stroke:none;stroke-width:4.32511568;stroke-linecap:square;stroke-linejoin:round;stroke-miterlimit:4;stroke-dasharray:none;stroke-opacity:1"
       d="m 554.03516,163.02734 -53.54493,77.57227 a 165.69337,165.69337 0 0 1 29.62305,27.71484 l 84.125,-66.59375 a 220.33745,198.33745 0 0 0 -60.20312,-38.69336 z"
       id="path4179" />
    <path
       style="opacity:1;fill:#ff6600;fill-opacity:1;stroke:none;stroke-width:4.32511568;stroke-linecap:square;stroke-linejoin:round;stroke-miterlimit:4;stroke-dasharray:none;stroke-opacity:1"
       d="m 313.39453,191.89844 a 220.33745,198.33745 0 0 0 -44.92383,48.76758 l 17.52344,16.65039 a 165.69337,165.69337 0 0 1 43.27734,-31.30469 l -15.87695,-34.11328 z"
       id="path4177" />
    <path
       style="opacity:1;fill:#000055;fill-opacity:1;stroke:none;stroke-width:4.32511568;stroke-linecap:square;stroke-linejoin:round;stroke-miterlimit:4;stroke-dasharray:none;stroke-opacity:1"
       d="m 620.4043,207.67773 -85.02344,67.30665 a 165.69337,165.69337 0 0 1 20.36719,35.57031 L 662.91602,268.98828 A 220.33745,198.33745 0 0 0 620.4043,207.67773 Z"
       id="path4175" />
    <path
       style="opacity:1;fill:#d40000;fill-opacity:1;stroke:none;stroke-width:4.32511568;stroke-linecap:square;stroke-linejoin:round;stroke-miterlimit:4;stroke-dasharray:none;stroke-opacity:1"
       d="m 263.81641,247.9707 a 220.33745,198.33745 0 0 0 -26.1543,93.39063 220.33745,198.33745 0 0 0 0.6875,15.0332 165.69337,165.69337 0 0 1 41.79687,-92.9082 L 263.81641,247.9707 Z"
       id="path4173" />
    <path
       style="opacity:1;fill:#440055;fill-opacity:1;stroke:none;stroke-width:4.32511568;stroke-linecap:square;stroke-linejoin:round;stroke-miterlimit:4;stroke-dasharray:none;stroke-opacity:1"
       d="m 666.11133,276.86719 -107.29492,41.61523 a 165.69337,165.69337 0 0 1 9.38476,43.52735 l 109.41406,-5.36329 a 220.33745,198.33745 0 0 0 0.72266,-15.28515 220.33745,198.33745 0 0 0 -12.22656,-64.49414 z"
       id="path4171" />
    <circle
       style="opacity:1;fill:#000000;fill-opacity:1;stroke:none;stroke-width:3.61325121;stroke-linecap:square;stroke-linejoin:round;stroke-miterlimit:4;stroke-dasharray:none;stroke-opacity:1"
       id="path4136"
       cx="384.80774"
       cy="393.03824"
       r="22.693375"
       transform="matrix(0.99887665,-0.04738607,0.04738607,0.99887665,0,0)" />
    <path
       style="opacity:1;fill:#000000;fill-opacity:1;stroke:none;stroke-width:7;stroke-linecap:square;stroke-linejoin:round;stroke-miterlimit:4;stroke-dasharray:none;stroke-opacity:1"
       d="m 397.67773,527.9375 a 154.69337,154.69337 0 0 0 -4.00195,0.082 l 0.94531,19.96094 a 134.69337,134.69337 0 0 1 4.00391,-0.082 l -0.94727,-19.96094 z m 47.9668,5.85938 -5.7793,19.18945 a 134.69337,134.69337 0 0 1 3.84766,1.10547 l 5.78906,-19.22852 a 154.69337,154.69337 0 0 0 -3.85742,-1.0664 z m -105.84961,7.58593 a 154.69337,154.69337 0 0 0 -3.65234,1.63281 l 8.40625,18.1211 a 134.69337,134.69337 0 0 1 3.65429,-1.63281 l -8.4082,-18.1211 z M 489.14648,553.95508 477.73438,570.5 a 134.69337,134.69337 0 0 1 3.34765,2.18945 l 11.33399,-16.43164 a 154.69337,154.69337 0 0 0 -3.26954,-2.30273 z m -196.65039,20.36914 a 154.69337,154.69337 0 0 0 -2.72656,2.92383 l 14.41016,13.72851 a 134.69337,134.69337 0 0 1 2.81054,-2.84375 L 292.49609,574.32422 Z M 522.89648,584.75 507.24609,597.15625 a 134.69337,134.69337 0 0 1 1.29883,1.52344 134.69337,134.69337 0 0 1 1.16406,1.6289 l 15.69532,-12.44336 a 154.69337,154.69337 0 0 0 -1.1875,-1.61132 154.69337,154.69337 0 0 0 -1.32032,-1.50391 z m 23.47657,39.80469 -18.62696,7.23242 a 134.69337,134.69337 0 0 1 1.44727,3.72851 l 18.55078,-7.20117 a 154.69337,154.69337 0 0 0 -1.37109,-3.75976 z"
       id="rect4206"
       inkscape:connector-curvature="0" />
    <circle
       transform="matrix(0.90711958,-0.42087298,0.42087298,0.90711958,0,0)"
       r="22.693375"
       cy="509.20309"
       cx="208.01027"
       id="circle4208"
       style="opacity:1;fill:#000000;fill-opacity:1;stroke:none;stroke-width:3.61325121;stroke-linecap:square;stroke-linejoin:round;stroke-miterlimit:4;stroke-dasharray:none;stroke-opacity:1" />
    <circle
       style="opacity:1;fill:#000000;fill-opacity:1;stroke:none;stroke-width:3.61325121;stroke-linecap:square;stroke-linejoin:round;stroke-miterlimit:4;stroke-dasharray:none;stroke-opacity:1"
       id="circle4212"
       cx="6.9298816"
       cy="550.00732"
       r="22.693375"
       transform="matrix(0.68977194,-0.7240267,0.7240267,0.68977194,0,0)" />
    <circle
       transform="matrix(0.95753574,0.28831459,-0.28831459,0.95753574,0,0)"
       r="22.693375"
       cy="242.27441"
       cx="493.82098"
       id="circle4216"
       style="opacity:1;fill:#000000;fill-opacity:1;stroke:none;stroke-width:3.61325121;stroke-linecap:square;stroke-linejoin:round;stroke-miterlimit:4;stroke-dasharray:none;stroke-opacity:1" />
    <circle
       style="opacity:1;fill:#000000;fill-opacity:1;stroke:none;stroke-width:3.61325121;stroke-linecap:square;stroke-linejoin:round;stroke-miterlimit:4;stroke-dasharray:none;stroke-opacity:1"
       id="circle4220"
       cx="544.30096"
       cy="79.325424"
       r="22.693375"
       transform="matrix(0.82315233,0.5678206,-0.5678206,0.82315233,0,0)" />
    <circle
       transform="matrix(0.62127643,0.78359147,-0.78359147,0.62127643,0,0)"
       r="22.693375"
       cy="-83.204948"
       cx="543.72144"
       id="circle4224"
       style="opacity:1;fill:#000000;fill-opacity:1;stroke:none;stroke-width:3.61325121;stroke-linecap:square;stroke-linejoin:round;stroke-miterlimit:4;stroke-dasharray:none;stroke-opacity:1" />
  </g>
</svg>
