<?xml version="1.0" encoding="UTF-8" standalone="no"?>
<svg
   xmlns:osb="http://www.openswatchbook.org/uri/2009/osb"
   xmlns:dc="http://purl.org/dc/elements/1.1/"
   xmlns:cc="http://creativecommons.org/ns#"
   xmlns:rdf="http://www.w3.org/1999/02/22-rdf-syntax-ns#"
   xmlns:svg="http://www.w3.org/2000/svg"
   xmlns="http://www.w3.org/2000/svg"
   viewBox="0 0 612 612"
   height="612"
   width="612"
   version="1.1"
   id="svg3392">
  <metadata
     id="metadata3398">
    <rdf:RDF>
      <cc:Work
         rdf:about="">
        <dc:format>image/svg+xml</dc:format>
        <dc:type
           rdf:resource="http://purl.org/dc/dcmitype/StillImage" />
        <dc:title></dc:title>
      </cc:Work>
    </rdf:RDF>
  </metadata>
  <defs
     id="defs3396">
    <linearGradient
       osb:paint="gradient"
       id="linearGradient4240">
      <stop
         id="stop4242"
         offset="0"
         style="stop-color:#008000;stop-opacity:1;" />
      <stop
         id="stop4244"
         offset="1"
         style="stop-color:#008000;stop-opacity:0;" />
    </linearGradient>
    <linearGradient
       osb:paint="gradient"
       id="linearGradient4228">
      <stop
         id="stop4230"
         offset="0"
         style="stop-color:#008000;stop-opacity:1;" />
      <stop
         id="stop4232"
         offset="1"
         style="stop-color:#008000;stop-opacity:0;" />
    </linearGradient>
  </defs>
  <path
     id="path3402"
     d="M 558.94173,355.5 C 550.87611,461.84713 461.08868,556.73902 354.50598,567.75976 296.22152,574.87869 233.45092,576.0997 180.79938,546.15359 112.91088,508.41734 66.38394,436.24762 59.76722,358.8918 51.409058,295.082 69.830167,225.28162 120.03227,182.39539 c 27.25998,-26.70493 67.386,-30.45657 103.58188,-28.78805 26.42643,0.76092 50.44206,-10.85336 72.45388,-24.15963 49.88197,-22.08728 106.69809,-5.60822 152.74961,18.20448 55.51312,31.41734 94.91744,88.54169 105.76922,151.31621 3.82736,18.54875 5.83136,37.60065 4.35487,56.5316 z"
     style="opacity:0.8199999;fill:#ff0000;fill-rule:evenodd;stroke:none;stroke-width:1.11653519px;stroke-linecap:butt;stroke-linejoin:miter;stroke-opacity:1" />
  <rect
     y="80"
     x="33"
     height="502"
     width="552"
     id="rect5815"
     style="opacity:0.96862745;fill:#ffffff;fill-opacity:1;stroke:none;stroke-width:7.5;stroke-miterlimit:4;stroke-dasharray:none;stroke-opacity:1" />
  <path
     d="m 344.25391,115.51367 c -16.81107,0.33098 -33.56964,3.55339 -49.63282,10.66602 a 3.5738337,3.5738337 0 0 0 -0.40234,0.20898 c -21.81487,13.18721 -45.18355,24.3755 -70.50195,23.64649 -36.51251,-1.67705 -77.72307,2.00396 -106.09766,29.72851 -0.028,0.0274 -0.058,0.0507 -0.0859,0.0781 -51.146845,43.82616 -69.754103,114.66383 -61.326169,179.35547 0.0018,0.0216 0.006,0.0428 0.0078,0.0645 6.741211,78.54855 53.878856,151.66444 122.816406,189.99805 0.005,0.003 0.0105,0.005 0.0156,0.008 0.005,0.003 0.0102,0.007 0.0156,0.01 53.72203,30.54037 117.29797,29.17911 175.81055,22.03711 l 0.0156,-0.002 C 463.34505,560.08963 554.29581,463.95037 562.50391,355.77734 l 0,-0.008 c 1.50766,-19.34291 -0.53949,-38.70303 -4.40625,-57.46289 C 547.04759,234.48082 507.06076,176.509 450.57812,144.54297 a 3.5738337,3.5738337 0 0 0 -0.11914,-0.0644 C 418.47704,127.94103 381.23827,114.78551 344.25391,115.51367 Z"
     id="path5813"
     style="opacity:0.81999966;fill:none;fill-opacity:1;fill-rule:evenodd;stroke:#0000ff;stroke-width:7.5;stroke-linecap:butt;stroke-linejoin:miter;stroke-miterlimit:4;stroke-dasharray:none;stroke-opacity:1" />
  <path
     id="path4226"
     d="m 100.40916,229.45523 c 7.8896,-2.22835 15.43777,-7.27327 23.87998,-4.9428 7.79837,0.82709 15.93536,0.44535 22.65432,5.12569 9.70348,4.2886 19.23661,10.94465 29.8943,11.47406 12.32785,-6.2878 25.8837,-10.58034 36.16603,-20.19172 1.70509,-4.05391 15.1992,-2.37579 10.31552,-5.3973 -16.25419,-9.35572 -33.62485,-16.59633 -50.91498,-23.69361 -12.74769,-2.41744 -25.85703,-3.55301 -37.63367,-9.41231 -8.72913,-2.32092 -12.50294,-11.66314 -19.22938,-17.02585 -6.50663,-6.23564 -13.10511,-12.402 -16.609329,-20.90237 -2.646307,-4.93346 -6.254295,-9.55664 -5.947409,-15.44295 4.956696,7.88966 8.654988,16.82758 14.382578,24.07508 6.97999,5.11169 12.48121,13.03171 21.62771,14.02896 21.2691,6.83037 43.78221,7.9374 65.33378,13.66187 7.47246,1.80042 15.0252,3.45646 22.6033,3.91032 6.76747,2.18305 13.53495,4.36611 20.30242,6.54916 1.31564,-6.58021 2.4121,-13.15311 -0.10085,-19.60567 -2.62431,-15.8414 -8.63784,-30.80054 -16.32223,-44.83992 -9.24511,-17.8012 -14.69268,-37.405941 -23.94727,-55.164224 -3.52576,-6.682612 -7.67012,-12.852287 -13.9222,-17.274271 -6.35478,-5.744601 -14.05689,-9.480163 -22.07499,-12.315441 -2.12733,5.178844 -1.82039,9.958511 2.12132,14.142136 -4.79199,-2.040345 -8.28171,-6.734869 -6.4526,-12.01978 -0.5791,-6.840991 7.47456,-4.641133 11.60918,-3.20344 12.70393,5.244104 25.54511,11.554107 34.19622,22.600297 14.49781,15.15494 26.83084,32.16378 39.48961,48.837913 8.37115,-12.09826 16.62989,-24.270817 24.39518,-36.769554 4.60968,-2.714363 10.23555,-6.596489 15.27896,-2.552038 3.54188,2.731498 11.81354,2.806903 12.33847,7.05133 -1.71888,7.484773 -1.48818,15.778258 -7.19494,21.608812 -7.819,10.08956 -10.40941,23.24458 -9.46233,35.78569 -0.19083,7.91633 0.0979,16.33701 4.24264,23.31257 12.42892,-13.56315 25.19588,-26.87848 35.24057,-42.37433 7.98702,-10.5931 12.76315,-23.261371 21.87118,-33.082837 6.56264,-8.812606 14.38312,-17.024612 23.59377,-23.037464 9.08841,-5.920186 18.41067,-11.398932 28.54248,-15.349558 4.98313,1.372309 10.1721,2.519224 10.96015,8.485282 -3.57384,2.772505 -6.9261,-7.025413 -12.36016,-3.043213 -6.774,4.836929 -14.2678,8.960008 -18.09423,16.72015 -6.19518,9.826446 -14.17889,18.489466 -20.41675,28.192002 -10.41445,25.146078 -22.16652,49.878788 -31.40542,75.424188 -3.4003,8.52049 4.00998,3.03603 8.47562,1.56389 23.64329,-9.24815 48.68716,-15.07259 71.93975,-25.04637 8.89636,-8.02835 16.96715,-17.25367 26.37772,-24.53647 9.81729,-4.17162 19.09537,-10.07601 29.26615,-13.11167 4.40424,-2.52283 13.13496,-0.32584 5.96888,3.14582 -8.41349,2.00611 -16.57957,5.71342 -23.92947,10.14549 -12.58477,9.92735 -23.38414,21.96292 -34.92114,33.04708 -4.31896,4.76919 -6.73754,12.14601 -13.94065,12.95764 -23.52775,8.43818 -47.40743,16.2307 -70.71628,25.07045 -4.32916,2.77431 -8.31131,7.65653 -12.8598,9.09841 -7.22712,-3.34753 -8.23107,-2.34648 -2.48469,3.37152 3.5061,3.02359 9.83705,-0.95585 14.13086,3.63063 8.10825,1.59981 16.85631,0.26813 25.21909,0.70171 4.25534,-1.25704 11.4024,-5.454 13.83954,-4.86254 -0.70982,5.95613 -5.0202,8.44561 -10.34856,9.95497 -7.32303,4.76206 -16.02894,1.31532 -24.12788,1.47154 -7.56296,-0.71481 -15.13258,-1.50048 -22.35136,1.45301 -5.85905,0.76707 -11.32986,4.30042 -16.85772,5.13809 -5.01373,-1.28657 -10.24339,-4.50205 -15.12102,-4.57285 -5.86959,3.87955 -11.64832,8.00181 -18.98727,7.95604 -12.17801,0.7482 -21.34176,10.65098 -33.4453,12.0158 -10.92013,2.70494 -21.73996,6.12906 -33.12778,5.4806 -9.27153,1.82047 -16.94084,-4.71112 -25.30763,-7.60685 -12.12926,-6.15529 -25.29691,-9.72042 -38.67142,-11.93212 -5.83438,1.78627 -10.97956,5.54032 -16.97057,2.12132 z"
     style="fill:#1a8014;fill-opacity:1;fill-rule:evenodd;stroke:none;stroke-width:1px;stroke-linecap:butt;stroke-linejoin:miter;stroke-opacity:1" />
</svg>
